<?xml version="1.0" standalone="no"?>
<!DOCTYPE svg PUBLIC "-//W3C//DTD SVG 20010904//EN"
 "http://www.w3.org/TR/2001/REC-SVG-20010904/DTD/svg10.dtd">
<svg version="1.0" xmlns="http://www.w3.org/2000/svg"
 width="564.000000pt" height="564.000000pt" viewBox="0 0 564.000000 564.000000"
 preserveAspectRatio="xMidYMid meet">
<metadata>
Created by potrace 1.14, written by Peter Selinger 2001-2017
</metadata>
<g transform="translate(0.000000,564.000000) scale(0.100000,-0.100000)"
fill="#000000" stroke="none">
<path d="M2618 5635 c-2 -1 -32 -6 -68 -9 -62 -6 -81 -9 -160 -21 -19 -3 -51
-8 -70 -11 -117 -16 -473 -121 -549 -160 -14 -8 -30 -14 -34 -14 -14 0 -282
-133 -295 -147 -7 -7 -17 -13 -22 -13 -9 0 -111 -61 -120 -71 -3 -3 -16 -12
-29 -19 -14 -7 -30 -17 -35 -21 -6 -5 -40 -30 -76 -56 -163 -118 -369 -311
-495 -464 -90 -110 -216 -290 -275 -395 -38 -67 -123 -229 -122 -231 1 -2 -11
-31 -27 -65 -25 -55 -78 -194 -85 -223 -2 -5 -6 -17 -9 -25 -13 -34 -72 -260
-81 -310 -3 -19 -8 -45 -10 -56 -8 -41 -18 -99 -21 -124 -1 -14 -7 -56 -11
-95 -12 -92 -11 -468 0 -570 5 -44 10 -93 12 -110 1 -16 3 -30 4 -30 2 0 6
-21 14 -67 3 -21 10 -57 15 -80 6 -24 12 -54 14 -68 3 -14 12 -50 21 -81 9
-31 18 -65 21 -75 14 -67 102 -297 160 -419 67 -142 224 -404 247 -413 4 -2 8
-8 8 -13 0 -12 136 -185 194 -248 91 -97 266 -267 266 -258 0 3 15 -9 32 -25
49 -46 292 -221 308 -223 3 0 25 -14 50 -30 114 -74 454 -228 575 -260 17 -5
32 -9 35 -10 84 -26 121 -36 139 -40 48 -11 69 -15 121 -26 30 -6 62 -13 70
-16 8 -3 31 -7 50 -9 19 -2 55 -6 80 -9 115 -16 179 -19 365 -19 186 -1 272 4
385 21 25 4 57 7 73 7 15 1 27 3 27 6 0 3 8 6 18 7 9 1 28 4 42 7 41 8 73 15
100 21 14 4 36 8 49 11 14 3 28 7 33 10 4 3 17 7 28 10 11 2 28 6 38 8 9 2 60
19 112 36 540 183 1017 532 1356 993 29 39 57 77 61 82 21 26 93 147 93 156 0
5 3 9 8 9 4 0 12 10 18 23 6 12 31 61 57 108 25 48 43 90 40 93 -4 3 -1 6 5 6
7 0 12 4 12 10 0 5 11 33 24 62 44 99 113 290 131 364 3 10 16 65 30 122 14
57 27 118 29 135 3 18 7 44 10 57 3 14 8 48 11 75 3 28 9 79 13 115 9 83 9
434 -1 525 -14 131 -21 183 -32 225 0 3 -5 28 -10 55 -4 28 -9 55 -11 60 -1 6
-5 21 -8 35 -11 53 -15 66 -25 93 -6 15 -9 27 -6 27 4 0 -73 228 -104 307 -27
67 -112 243 -153 315 -76 131 -99 168 -164 258 -37 52 -73 100 -78 106 -6 7
-27 31 -46 55 -62 78 -213 235 -300 312 -35 31 -111 92 -225 179 -32 25 -175
118 -181 118 -4 0 -15 6 -23 14 -21 19 -208 115 -301 155 -41 18 -88 39 -105
46 -16 7 -82 30 -145 50 -63 20 -122 39 -130 42 -8 4 -26 8 -40 10 -14 2 -36
8 -50 13 -14 5 -65 17 -115 26 -49 9 -99 18 -110 20 -11 2 -45 7 -75 10 -30 4
-68 8 -85 11 -35 5 -482 13 -487 8z"/>
</g>
</svg>
